HIERARCHY
ROOT Hips
{
  OFFSET -2.33658 39.0322 -42.1687
  CHANNELS 6 Xposition Yposition Zposition Zrotation Xrotation Yrotation
  JOINT ToSpine
  {
    OFFSET -2.69724 7.43032 -0.144315
    CHANNELS 3 Zrotation Xrotation Yrotation
    JOINT Spine
    {
      OFFSET -0.0310711 10.7595 1.96963
      CHANNELS 3 Zrotation Xrotation Yrotation
      JOINT Spine1
      {
        OFFSET 19.9056 3.91189 0.764692
        CHANNELS 3 Zrotation Xrotation Yrotation
        JOINT Neck
        {
          OFFSET 25.9749 7.03908 -0.130764
          CHANNELS 3 Zrotation Xrotation Yrotation
          JOINT Head
          {
            OFFSET 9.52751 0.295786 -0.907742
            CHANNELS 3 Zrotation Xrotation Yrotation
            End Site
            {
              OFFSET 16.4037 0.713936 2.7358
            }
          }
        }
        JOINT LeftShoulder
        {
          OFFSET 17.7449 4.33886 11.7777
          CHANNELS 3 Zrotation Xrotation Yrotation
          JOINT LeftArm
          {
            OFFSET 0.911315 1.27913 9.80584
            CHANNELS 3 Zrotation Xrotation Yrotation
            JOINT LeftForeArm
            {
              OFFSET 28.6126 1.18197 -3.53199
              CHANNELS 3 Zrotation Xrotation Yrotation
              JOINT LeftHand
              {
                OFFSET 27.5088 0.0218783 0.327423
                CHANNELS 3 Zrotation Xrotation Yrotation
                End Site
                {
                  OFFSET 18.6038 -0.000155887 0.382096
                }
              }
            }
          }
        }
        JOINT RightShoulder
        {
          OFFSET 17.1009 2.89543 -12.2328
          CHANNELS 3 Zrotation Xrotation Yrotation
          JOINT RightArm
          {
            OFFSET 1.4228 0.178766 -10.211
            CHANNELS 3 Zrotation Xrotation Yrotation
            JOINT RightForeArm
            {
              OFFSET 28.733 1.87905 2.64907
              CHANNELS 3 Zrotation Xrotation Yrotation
              JOINT RightHand
              {
                OFFSET 27.4588 0.290562 -0.101845
                CHANNELS 3 Zrotation Xrotation Yrotation
                End Site
                {
                  OFFSET 17.8396 -0.255518 -0.000602873
                }
              }
            }
          }
        }
      }
    }
  }
  JOINT LeftUpLeg
  {
    OFFSET -5.61296 -2.22332 -10.2353
    CHANNELS 3 Zrotation Xrotation Yrotation
    JOINT LeftLeg
    {
      OFFSET 2.56703 -44.7417 -7.93097
      CHANNELS 3 Zrotation Xrotation Yrotation
      JOINT LeftFoot
      {
        OFFSET 3.16933 -46.5642 -3.96578
        CHANNELS 3 Zrotation Xrotation Yrotation
        JOINT LeftToeBase
        {
          OFFSET 0.346054 -6.02161 12.8035
          CHANNELS 3 Zrotation Xrotation Yrotation
          End Site
          {
            OFFSET 0.134235 -1.35082 5.13018
          }
        }
      }
    }
  }
  JOINT RightUpLeg
  {
    OFFSET -5.7928 -1.72406 10.6446
    CHANNELS 3 Zrotation Xrotation Yrotation
    JOINT RightLeg
    {
      OFFSET -2.57161 -44.7178 -7.85259
      CHANNELS 3 Zrotation Xrotation Yrotation
      JOINT RightFoot
      {
        OFFSET -3.10148 -46.5936 -4.03391
        CHANNELS 3 Zrotation Xrotation Yrotation
        JOINT RightToeBase
        {
          OFFSET -0.0828122 -6.13587 12.8035
          CHANNELS 3 Zrotation Xrotation Yrotation
          End Site
          {
            OFFSET -0.131328 -1.35082 5.13018
          }
        }
      }
    }
  }
}
MOTION
Frames:	15
Frame Time:	0.0333333
5.85458 57.8906 17.4972 -1.82899 -20.05 -84.9863 -70.1915 0 88.8779 163.919 42.8398 -68.1584 -10.3775 28.9119 -12.0534 -165.005 31.2746 -173.186 168.261 69.2488 -125.485 1.40289 -2.46483 -15.4686 -85.5998 34.0834 170.724 -18.107 53.7872 12.6519 54.0586 -2.3919 -2.94867 -0.144517 -1.93944 -23.2972 -109.241 -0.548303 145.486 -5.41359 -28.6432 3.62686 24.1852 -0.234109 -1.49338 9.52154 12.1675 89.5229 -169.675 56.3966 165.334 3.01423 -6.34916 -0.769439 -41.5134 -47.3239 -41.5558 -2.7303 -21.8602 86.5155 163.624 66.4068 -134.235 -10.5661 -19.2686 1.05214 -14.8404 -51.7447 -10.5313 
5.31024 58.218 22.5718 -0.0179125 -19.8421 -83.8226 -70.1915 0 88.8779 163.866 42.4641 -67.9922 -10.3594 29.3089 -13.0829 -165.731 31.4432 -175.061 170.91 69.9706 -128.939 1.38044 -5.58771 -19.1934 -86.11 31.6099 175.624 -20.3051 56.8281 13.179 55.9257 -2.55298 -3.06985 0.0558643 -1.2812 -22.9648 -108.786 0.674964 145.014 -7.83555 -30.1454 -0.645773 23.3106 -0.367881 -2.18893 4.09633 11.9749 89.6808 -168.553 60.9262 162.901 2.21525 -7.25629 -0.764379 -37.6322 -44.7124 -39.5469 -9.27885 -21.5323 83.8823 160.388 71.2994 -131.465 -10.451 -18.5733 1.07194 -15.3467 -51.0709 -12.4765 
4.50385 57.9418 27.5128 1.27787 -18.4638 -82.6767 -70.1915 0 88.8779 163.072 43.3919 -67.15 -10.0492 29.096 -13.1484 -173.61 31.1854 -169.099 158.905 69.0459 -121.96 1.5192 -6.49384 -26.1354 -87.1314 26.6265 -179.255 -21.7888 59.5733 12.3372 57.773 -2.63568 -3.03728 0.275502 -0.584517 -24.9087 -108.945 -1.2042 144.695 -10.1638 -33.7379 -5.03453 25.3232 -0.552386 -2.88079 0.448075 12.1459 88.9808 -167.175 65.0685 160.507 1.90319 -7.45989 -0.758082 -34.6592 -41.7722 -39.5723 -14.3005 -20.2373 81.1917 155.127 76.0617 -127.509 -9.98826 -18.2107 1.09766 -15.4905 -50.9497 -12.966 
3.60959 57.2486 32.4443 3.27131 -17.6617 -80.8195 -70.1915 0 88.8779 162.805 43.5826 -66.2287 -9.58929 29.0734 -14.106 -178.912 31.2883 -168.407 156.092 69.8148 -122.699 1.43328 -7.70447 -30.5938 -87.1045 24.5977 -175.18 -23.4903 64.2992 12.9733 59.0552 -2.76017 -3.13322 0.41967 -0.111497 -23.7197 -109.471 -1.44513 143.13 -11.498 -39.5528 -7.50244 26.926 -0.768784 -3.6589 -3.62881 11.688 87.6775 -165.265 69.2227 157.548 1.41717 -7.01355 -0.704231 -33.3859 -40.1015 -40.4027 -20.5818 -19.0567 77.7906 143.002 80.9032 -116.409 -10.2834 -17.684 1.09684 -16.0815 -51.3296 -14.0529 
2.45762 56.1076 37.355 4.69519 -16.6765 -79.5372 -70.1915 0 88.8779 162.444 44.1231 -65.7761 -9.14059 29.4086 -15.0911 176.955 31.4508 -167.923 154.754 70.7636 -123.895 1.3745 -8.46318 -35.9865 -86.9321 20.2591 -170.28 -20.4174 68.0428 8.53116 59.3382 -2.93869 -3.41531 0.497802 0.187523 -21.8767 -110.057 -1.73986 141.741 -11.8423 -45.7572 -8.34099 26.2347 -0.801401 -3.91776 -7.45091 11.8319 86.3559 -162.166 73.1346 152.279 0.836881 -6.58548 -0.641396 -32.458 -39.9204 -38.8672 -26.316 -17.1939 74.8104 108.069 84.682 -82.5942 -11.5297 -17.2552 1.06586 -16.8343 -51.7008 -15.5051 
1.39104 54.5048 42.132 6.97383 -15.2887 -78.9999 -70.1915 0 88.8779 160.944 45.2435 -64.9049 -8.64239 29.2545 -16.0835 175.852 31.9551 -169.032 156.746 71.817 -126.348 1.16423 -9.43484 -41.219 -86.0528 13.53 -164.654 -13.1612 68.5763 0.0743706 60.2629 -3.27644 -3.89819 0.598128 0.552501 -21.3258 -105.809 -0.593486 137.954 -10.462 -48.2461 -5.99359 26.68 -1.08066 -4.79483 -11.1812 10.9955 86.0572 -157.048 77.2163 145.649 0.452571 -5.64462 -0.552553 -31.9021 -39.1673 -39.2857 -31.5082 -16.8393 72.5 52.4643 84.025 -27.2176 -11.8738 -17.1013 1.06047 -16.6392 -51.7643 -14.9623 
-0.00739225 52.576 46.9127 8.75764 -13.6387 -79.0422 -70.1915 0 88.8779 158.68 46.8258 -64.7739 -8.51813 29.0525 -16.0805 177.27 32.6534 -172.289 162.917 72.7723 -130.843 1.03052 -9.89524 -44.4299 -84.9499 10.616 -159.395 -6.31544 70.5912 -6.46979 61.3072 -3.48234 -4.12829 0.387244 -0.203259 -19.9714 -98.7676 -0.275514 133.538 -3.40291 -41.1996 4.18373 33.8662 -3.04085 -10.6815 -14.5731 11.2595 86.2612 -146.618 81.3861 134.213 0.276304 -4.09666 -0.430638 -30.7498 -36.3499 -42.9705 -36.0777 -16.1766 70.5898 26.161 79.9045 -0.813894 -11.1501 -17.2053 1.07969 -15.6156 -51.4234 -12.7943 
-1.37173 50.1119 51.4471 10.5885 -11.0526 -78.8262 -70.1915 0 88.8779 154.591 49.7698 -63.0356 -8.47804 27.9505 -15.0516 -179.833 32.7477 -176.863 171.152 72.8322 -136.931 1.15159 -9.55246 -45.7785 -79.466 2.12438 -152.51 8.64498 62.7521 -20.5018 61.4009 -3.59393 -4.30306 -0.0199655 -1.59103 -14.0888 -88.5118 8.07368 131.101 0.213099 -24.3996 13.4203 44.6974 -3.99765 -10.1733 -16.5075 11.8504 86.4461 -125.794 84.306 111.66 -0.0206932 -3.20805 -0.34187 -28.0077 -33.5848 -43.2996 -39.948 -15.3828 68.1654 15.7561 74.6564 9.7068 -10.5603 -17.5839 1.08766 -14.3738 -51.3166 -9.75916 
-2.63242 47.5185 55.6033 11.6343 -9.13007 -78.4911 -70.1915 0 88.8779 150.783 52.129 -61.479 -9.11048 26.717 -12.8325 -177.063 32.4532 -179.052 175.435 72.3924 -139.127 1.34892 -9.02181 -47.97 -72.0926 -6.70735 -144.458 13.5694 52.7759 -24.0631 61.9679 -3.93701 -4.80225 -0.854105 -7.14781 -8.65511 -78.9861 18.4578 134.117 4.03638 -15.3992 19.208 53.6784 -5.58121 -11.5281 -18.796 13.7904 87.2948 -87.1921 85.5338 72.2179 -0.104896 -2.91861 -0.311117 -25.4432 -31.0198 -43.5835 -43.8083 -13.5551 66.4415 10.7359 68.9742 14.9107 -9.33165 -16.6385 1.13932 -13.0052 -52.6227 -5.18453 
-3.62389 44.8571 59.329 12.5294 -7.45324 -78.4235 -70.1915 0 88.8779 146.293 54.4159 -58.5683 -9.54418 25.3638 -11.3989 -173.938 31.7396 177.841 -176.46 71.7822 -145.624 1.54132 -8.5221 -48.9593 -65.4461 -11.2758 -136.473 13.9224 45.8318 -23.9509 63.5335 -4.20602 -5.03661 -1.01549 -7.7658 -9.0193 -75.9479 13.7049 133.237 11.5405 -14.9059 29.1755 56.5814 -6.87115 -13.2676 -20.9835 15.8819 89.1396 -52.8386 84.6204 37.9315 -0.929334 -1.97286 -0.158683 -23.2079 -29.3706 -41.9854 -47.3445 -11.8773 65.4725 7.93041 63.414 17.6598 -7.70251 -16.1632 1.17906 -10.696 -53.3419 1.00603 
-4.52609 42.2638 62.6004 13.137 -6.22218 -78.871 -70.1915 0 88.8779 142.286 56.3471 -55.995 -9.96702 24.7821 -11.1054 -172.044 31.2309 173.747 -170.254 71.125 -152.102 1.58315 -8.39303 -48.7078 -62.4888 -10.6284 -130.334 14.0069 45.2905 -23.9607 64.6203 -4.50991 -5.37403 -0.998079 -8.41243 -7.1262 -77.9959 6.01428 132.336 19.138 -19.3821 41.2971 57.6376 -8.08258 -15.1795 -23.4781 18.1446 92.0383 -34.3034 82.7529 20.2682 -0.532795 -0.972624 -0.122139 -20.2332 -26.7628 -40.7085 -50.4535 -10.5827 65.4162 6.444 58.6731 19.4461 -6.29529 -15.8842 1.20137 -8.17349 -52.4392 6.92414 
-5.30483 39.7073 65.4668 13.2558 -4.55251 -79.1964 -70.1915 0 88.8779 139.284 58.4002 -53.0542 -10.6775 25.1324 -11.6347 -170.618 31.3077 171.976 -171.631 70.9936 -150.926 1.44347 -8.74382 -47.5928 -59.7695 -7.71171 -124.99 16.2568 45.2188 -25.2616 64.3551 -4.86254 -5.96467 -1.023 -8.82992 -6.54763 -75.4298 1.08805 129.577 24.7845 -18.9104 51.3237 60.6558 -8.94136 -15.7834 -25.2189 20.3566 94.5774 -24.9811 80.7675 11.7985 -0.267636 -0.453001 -0.113598 -17.0228 -23.8283 -39.1822 -52.4177 -8.77232 66.1392 5.39606 54.2898 20.225 -5.59812 -14.8038 1.18973 -6.13816 -52.1427 12.1021 
-5.91789 37.0494 68.1136 13.8996 -2.9534 -79.4573 -70.1915 0 88.8779 135.991 60.0739 -49.98 -11.5827 25.1964 -11.7604 -169.282 31.4063 170.623 -171.984 70.9803 -150.384 1.50363 -8.52486 -46.4329 -56.7515 -5.22878 -120.856 17.2009 44.7971 -25.8068 64.3596 -5.14705 -6.41182 -0.981177 -8.44759 -6.78717 -72.8674 -4.73692 125.498 31.6079 -17.6425 61.3998 62.9276 -8.92385 -15.0746 -26.8851 21.5429 96.4866 -19.5968 78.7125 6.49702 -0.120534 -0.0446492 -0.100715 -13.8057 -20.8482 -36.7745 -54.511 -7.10535 66.9738 4.60781 50.11 20.2993 -5.34278 -14.2421 1.17694 -5.13734 -50.5626 14.352 
-6.33469 34.3911 70.4632 15.4172 -1.31952 -79.3563 -70.1915 0 88.8779 132.791 61.0275 -46.5154 -12.198 24.9585 -12.2978 -169.565 31.9026 169.377 -172.183 71.3745 -151.163 1.6091 -8.12582 -44.9174 -57.7923 -1.40387 -118.635 17.5984 49.1465 -26.3853 64.2882 -5.4089 -6.83632 -0.903719 -8.78911 -5.00384 -70.8036 -9.04715 120.894 38.6107 -14.9074 70.7706 64.9545 -8.55801 -13.9329 -28.1968 21.6321 97.1034 -16.0375 76.753 3.23254 -0.558752 0.106765 -0.0377427 -10.0784 -17.0267 -33.9857 -56.866 -5.86194 66.8435 3.98608 46.2552 19.9138 -5.28344 -14.1944 1.17639 -3.62322 -46.4814 18.2708 
-6.67106 31.5954 72.6714 15.8503 -0.21855 -80.0058 -70.1915 0 88.8779 130.275 62.0587 -44.5599 -13.4436 25.2172 -12.2772 -169.295 32.0519 167.986 -170.358 71.4926 -153.137 1.72389 -7.67094 -43.4119 -49.2197 -1.13153 -114.476 17.9704 42.5154 -26.1771 63.7836 -5.46969 -7.01629 -0.755548 -8.55997 -3.30448 -68.9035 -12.4899 115.421 44.3807 -10.2552 78.8561 66.7204 -8.21088 -12.9505 -30.6561 22.3449 99.0797 -13.2813 74.5167 0.452394 -1.36813 -0.275125 0.0314151 -6.24189 -12.4819 -32.482 -59.0689 -5.04135 67.4379 3.61666 43.0419 20.1283 -6.2538 -13.4154 1.15966 -3.31907 -43.8796 19.0634 
